<svg width="945" height="885" fill="none" xmlns="http://www.w3.org/2000/svg"><g filter="url(#filter0_f)"><circle cx="460.5" cy="417.5" r="205.5" fill="#D7969E"/></g><g filter="url(#filter1_b)"><path fill-rule="evenodd" clip-rule="evenodd" d="M945 0H0v885h945V0zM662.811 210.976c10.243 4.193 11.271 6.068 12.298 13.724l3.162.064v-26.305h-3.162c-1.138 9.388-2.165 10.754-8.773 8.244-14.384-5.448-32.894-12.993-47.579-19.061 18.905-7.195 41.557-15.551 49.856-18.41 4.22-1.604 5.579-1.143 6.496 7.323h3.162v-29.052h-3.162c-.679 6.973-1.818 8.942-10.243 12.119-16.85 6.529-43.485 16.361-61.806 23.112v3.764c11.088 4.405 36.991 15.091 51.232 20.967l.073.03c3.854 1.59 6.846 2.824 8.446 3.481zm-58.502 62.408h3.162c1.011 9.372 1.47 10.293 11.065 10.293h45.303c9.784 0 10.243-.921 11.27-10.293h3.162v30.657h-3.162c-1.027-9.531-1.486-10.42-11.27-10.42h-45.193c-9.784 0-10.132.921-11.065 10.42h-3.161l-.111-30.657zm-.742 143.674c-.091 1.155-.176 2.224-.176 3.43l3.178.461a16.45 16.45 0 015.232-8.356 104.846 104.846 0 0111.729-9.022c5.121-3.447 12.74-8.355 16.281-10.42 3.636 8.403 9.785 14.757 19.569 14.757 2.964.131 5.91-.519 8.546-1.884a17.053 17.053 0 006.487-5.9c2.845-4.336 3.873-9.943 3.873-18.298v-29.164h-3.162c-1.043 9.038-1.391 10.293-11.065 10.293h-45.414c-9.595 0-10.053-.762-11.065-10.293h-3.161v30.609h3.161c.822-9.149 1.391-10.42 11.065-10.42h17.878v4.019c0 5.766-.679 7.243-4.331 9.53-1.705 1.079-3.53 2.196-5.403 3.343l-.004.003c-4.498 2.754-9.277 5.681-13.372 8.663-7.05 5.035-9.215 9.499-9.784 17.854l-.026.33-.036.461v.004zm40.164-26.194c-2.387-2.859-3.288-6.624-3.288-12.58v-5.433h27.884c2.956 0 4.094.35 4.885 1.382.695.794 1.138 2.748 1.138 6.068 0 8.8-4.426 16.917-16.614 16.917-6.101 0-10.701-1.891-14.005-6.354zm31.378 159.904c-.806-7.306-1.944-9.721-7.176-10.054l-.586-.021-.654-.024c-3.512-.128-8.338-.305-17.729-.305h-45.651v-4.352l59.498-48.939h-28.453c-10.243 0-15.364.333-18.668.571-5.801.223-7.508 3.082-8.188 11.31h-3.161v-27.781h3.161c.569 7.084 2.276 9.832 7.904 10.292 3.651.334 8.773.572 19.126.572h28.959c3.161 0 5.011-.238 7.524-2.287 2.845-2.176 3.525-4.575 4.094-10.182h3.162v17.155l-57.254 48.495h27.916c10.575 0 15.475-.223 18.889-.572 5.122-.35 6.718-2.97 7.287-12.12h3.162v28.242h-3.162zm-67.638 95.86h-3.161l-.095 28.178h3.161c.901-8.117 1.818-9.149 11.713-12.802a11041.88 11041.88 0 0060.668-22.238l-.679-3.67-59.751-23.667c-10.244-4.003-11.05-5.83-11.951-13.041h-3.161v26.415h3.161c1.186-9.371 2.087-10.976 9.485-8.466 2.832.959 5.53 1.957 8.334 2.994 1.891.7 3.83 1.417 5.892 2.153v24.715c-6.625 2.22-12.128 4.262-16.306 5.813l-.987.366c-4.284 1.589-5.422.683-6.323-6.75zm28.374-22.429a5746.789 5746.789 0 0029.132 10.992l-29.132 10.404v-21.396z" fill="#fff" fill-opacity=".85"/></g><defs><filter id="filter0_f" x="55" y="12" width="811" height="811" filterUnits="userSpaceOnUse" color-interpolation-filters="sRGB"><feFlood flood-opacity="0" result="BackgroundImageFix"/><feBlend in="SourceGraphic" in2="BackgroundImageFix" result="shape"/><feGaussianBlur stdDeviation="100" result="effect1_foregroundBlur"/></filter><filter id="filter1_b" x="-40" y="-40" width="1025" height="965" filterUnits="userSpaceOnUse" color-interpolation-filters="sRGB"><feFlood flood-opacity="0" result="BackgroundImageFix"/><feGaussianBlur in="BackgroundImage" stdDeviation="20"/><feComposite in2="SourceAlpha" operator="in" result="effect1_backgroundBlur"/><feBlend in="SourceGraphic" in2="effect1_backgroundBlur" result="shape"/></filter></defs></svg>