<svg width="733" height="694" fill="none" xmlns="http://www.w3.org/2000/svg"><g filter="url(#filter0_f)"><circle cx="369" cy="364" r="164" fill="#D7969E"/></g><g filter="url(#filter1_b)"><path fill-rule="evenodd" clip-rule="evenodd" d="M705 34H0v660h705V34zM487.444 191.858c9.334 3.823 10.27 5.531 11.206 12.51l2.881.058v-23.977h-2.881c-1.037 8.557-1.973 9.802-7.994 7.514-13.107-4.966-29.973-11.844-43.354-17.375 17.227-6.559 37.867-14.175 45.428-16.781 3.846-1.462 5.085-1.042 5.92 6.675h2.881V134h-2.881c-.619 6.356-1.656 8.152-9.333 11.047-15.354 5.951-39.624 14.914-56.317 21.067v3.432c10.103 4.015 33.705 13.756 46.681 19.111 3.544 1.463 6.296 2.599 7.763 3.201zm-53.306 56.887h2.881c.921 8.543 1.339 9.383 10.082 9.383h41.28c8.915 0 9.333-.84 10.269-9.383h2.881v27.945h-2.881c-.936-8.688-1.354-9.499-10.269-9.499h-41.179c-8.916 0-9.233.84-10.083 9.499h-2.88l-.101-27.945zm-.676 130.963c-.083 1.054-.16 2.028-.16 3.127l2.895.42a14.996 14.996 0 014.767-7.616 95.547 95.547 0 0110.687-8.224c4.667-3.142 11.61-7.616 14.836-9.498 3.313 7.659 8.916 13.451 17.831 13.451 2.7.119 5.385-.473 7.787-1.717a15.546 15.546 0 005.911-5.378c2.592-3.953 3.528-9.064 3.528-16.68V321.01h-2.88c-.951 8.238-1.268 9.382-10.082 9.382h-41.381c-8.743 0-9.161-.695-10.082-9.382h-2.881v27.901h2.881c.749-8.34 1.267-9.498 10.082-9.498h16.29v3.663c0 5.256-.619 6.602-3.946 8.687-1.552.982-3.211 1.998-4.915 3.042l-.008.005-.004.002c-4.098 2.511-8.454 5.179-12.185 7.897-6.423 4.59-8.397 8.659-8.915 16.275l-.056.724zm36.597-23.876c-2.175-2.607-2.996-6.038-2.996-11.468v-4.951h25.407c2.694 0 3.731.318 4.451 1.259.634.724 1.037 2.505 1.037 5.531 0 8.021-4.033 15.42-15.138 15.42-5.559 0-9.751-1.723-12.761-5.791zM498.65 501.59c-.734-6.661-1.771-8.861-6.539-9.165l-1.094-.04-.037-.001h-.001c-3.2-.117-7.597-.278-16.152-.278H433.23v-3.967l54.214-44.61h-25.926c-9.333 0-14 .304-17.01.521-5.286.203-6.841 2.809-7.461 10.309h-2.88v-25.323h2.88c.519 6.457 2.074 8.962 7.202 9.382 3.327.304 7.994.521 17.428.521h26.387c2.88 0 4.566-.217 6.856-2.085 2.592-1.983 3.212-4.17 3.73-9.281h2.881v15.638l-52.169 44.204h25.436c9.636 0 14.101-.203 17.212-.521 4.667-.319 6.122-2.708 6.64-11.048h2.881v25.744h-2.881zm-61.631 87.379h-2.881l-.086 25.685h2.881c.821-7.398 1.656-8.34 10.672-11.67a9960.535 9960.535 0 0055.28-20.27l-.619-3.345-54.444-21.574c-9.334-3.648-10.068-5.313-10.889-11.887h-2.881v24.079h2.881c1.08-8.543 1.901-10.005 8.642-7.718 2.581.874 5.039 1.784 7.595 2.73 1.723.637 3.489 1.291 5.368 1.962v22.529c-6.038 2.023-11.053 3.885-14.86 5.299l-.898.333c-3.903 1.448-4.94.623-5.761-6.153zm25.854-20.445c8.195 3.128 17.63 6.675 26.545 10.02l-26.545 9.483v-19.503z" fill="#fff" fill-opacity=".85"/></g><defs><filter id="filter0_f" x="5" y="0" width="728" height="728" filterUnits="userSpaceOnUse" color-interpolation-filters="sRGB"><feFlood flood-opacity="0" result="BackgroundImageFix"/><feBlend in="SourceGraphic" in2="BackgroundImageFix" result="shape"/><feGaussianBlur stdDeviation="100" result="effect1_foregroundBlur"/></filter><filter id="filter1_b" x="-40" y="-6" width="785" height="740" filterUnits="userSpaceOnUse" color-interpolation-filters="sRGB"><feFlood flood-opacity="0" result="BackgroundImageFix"/><feGaussianBlur in="BackgroundImage" stdDeviation="20"/><feComposite in2="SourceAlpha" operator="in" result="effect1_backgroundBlur"/><feBlend in="SourceGraphic" in2="effect1_backgroundBlur" result="shape"/></filter></defs></svg>