<svg width="360" height="418" fill="none" xmlns="http://www.w3.org/2000/svg"><g filter="url(#filter0_f)"><circle cx="63.5" cy="213.5" r="63.5" fill="#D7969E"/></g><g filter="url(#filter1_b)"><path fill-rule="evenodd" clip-rule="evenodd" d="M360 2H0v416h360V2zM70.507 164.406c2.305 1.054 2.536 1.524 2.768 3.448l.71.016v-6.608h-.71c-.257 2.358-.488 2.701-1.974 2.071-3.237-1.368-7.402-3.264-10.706-4.788 4.254-1.807 9.35-3.906 11.218-4.624.95-.403 1.255-.287 1.462 1.839h.71v-7.297h-.71c-.153 1.751-.41 2.246-2.305 3.044-3.791 1.64-9.784 4.11-13.906 5.805v.946c2.495 1.106 8.324 3.791 11.528 5.267l1.915.881zm-13.163 15.676h.712c.227 2.354.33 2.586 2.49 2.586h10.193c2.201 0 2.304-.232 2.536-2.586h.71v7.701h-.71c-.232-2.394-.335-2.618-2.536-2.618H60.57c-2.201 0-2.28.232-2.49 2.618h-.71l-.026-7.701zm-.166 36.089c-.02.29-.04.559-.04.862l.715.115a4.219 4.219 0 011.177-2.098 24.023 24.023 0 012.64-2.267c1.152-.866 2.866-2.098 3.663-2.617.818 2.111 2.201 3.707 4.403 3.707a3.497 3.497 0 001.922-.474 4.014 4.014 0 001.46-1.482c.64-1.089.871-2.497.871-4.596v-7.325h-.711c-.235 2.27-.313 2.585-2.49 2.585H60.57c-2.159 0-2.262-.191-2.49-2.585h-.71v7.688h.71c.186-2.298.314-2.617 2.49-2.617h4.023v1.009c0 1.449-.153 1.82-.975 2.394-.383.271-.792.55-1.212.838l-.004.002v.001c-1.012.691-2.088 1.427-3.009 2.176-1.586 1.264-2.074 2.386-2.202 4.484l-.004.069-.01.131zm9.037-6.58c-.537-.718-.74-1.663-.74-3.16v-1.364h6.274c.665 0 .92.088 1.099.347.156.199.256.69.256 1.524 0 2.21-.996 4.249-3.738 4.249-1.373 0-2.408-.474-3.151-1.596zm7.06 40.166c-.182-1.835-.438-2.442-1.615-2.526l-.28-.011c-.79-.032-1.875-.076-3.988-.076H57.12v-1.094l13.386-12.292h-6.401c-2.305 0-3.457.083-4.2.143-1.306.056-1.69.774-1.843 2.841h-.711v-6.978h.711c.128 1.779.512 2.47 1.778 2.585.822.084 1.974.144 4.304.144h6.516c.71 0 1.127-.06 1.692-.575.64-.546.794-1.149.922-2.557h.71v4.309l-12.881 12.181h6.28c2.38 0 3.483-.056 4.251-.144 1.152-.087 1.511-.746 1.64-3.044h.71v7.094h-.71zm-15.22 24.078h-.71l-.022 7.078h.712c.202-2.038.409-2.298 2.635-3.215a2387.81 2387.81 0 0013.65-5.586l-.153-.922-13.444-5.945c-2.304-1.005-2.486-1.464-2.688-3.276h-.712v6.636h.712c.266-2.354.469-2.757 2.134-2.127.637.241 1.244.491 1.875.752.425.176.862.356 1.326.541v6.208a106.27 106.27 0 00-3.669 1.46l-.222.092c-.964.399-1.22.172-1.423-1.696zm6.385-5.633c2.024.861 4.353 1.839 6.555 2.761l-6.555 2.613v-5.374z" fill="#fff" fill-opacity=".85"/></g><defs><filter id="filter0_f" x="-150" y="0" width="427" height="427" filterUnits="userSpaceOnUse" color-interpolation-filters="sRGB"><feFlood flood-opacity="0" result="BackgroundImageFix"/><feBlend in="SourceGraphic" in2="BackgroundImageFix" result="shape"/><feGaussianBlur stdDeviation="75" result="effect1_foregroundBlur"/></filter><filter id="filter1_b" x="-40" y="-38" width="440" height="496" filterUnits="userSpaceOnUse" color-interpolation-filters="sRGB"><feFlood flood-opacity="0" result="BackgroundImageFix"/><feGaussianBlur in="BackgroundImage" stdDeviation="20"/><feComposite in2="SourceAlpha" operator="in" result="effect1_backgroundBlur"/><feBlend in="SourceGraphic" in2="effect1_backgroundBlur" result="shape"/></filter></defs></svg>