<svg width="121" height="16" fill="none" xmlns="http://www.w3.org/2000/svg"><g clip-path="url(#clip0)"><path d="M16.557 1.025c-1.59.212-1.98.423-2.85 2.534-.64 1.547-3.918 9.402-5.083 12.31h-.781c-1.402-3.775-3.444-9.262-4.8-12.734C2.385 1.4 1.976 1.165.528 1.025V.374H6.56v.65c-1.758.19-1.854.47-1.52 1.34.593 1.71 2.328 6.376 3.822 10.271 1.26-3.025 2.826-6.84 3.958-9.803.52-1.361.237-1.573-1.712-1.807V.374h5.462l-.013.65zm10.109 14.587v-.652c1.946-.208 2.137-.303 2.137-2.28V3.348c0-2.016-.191-2.11-2.137-2.322V.374h6.365v.65c-1.979.213-2.163.307-2.163 2.323v9.31c0 2.017.191 2.088 2.163 2.28v.652l-6.365.023zm30.545.188c-.307 0-.57-.025-.877-.048-1.735-.117-2.662-.563-3.708-2.016-.877-1.195-1.731-2.674-2.493-3.869-.475-.752-.782-.892-1.979-.892h-.835v3.683c0 1.993.264 2.11 2.164 2.28v.651h-6.356v-.651c1.98-.209 2.138-.303 2.138-2.28V3.302c0-1.993-.26-2.065-2.138-2.28V.37h6.056c1.735 0 2.9.211 3.8.798.519.332.941.793 1.225 1.336.283.543.418 1.15.39 1.76 0 2.017-1.319 3.283-3.063 4.032.429.73 1.448 2.3 2.163 3.355a21.628 21.628 0 001.874 2.416 3.42 3.42 0 001.735 1.078l-.096.655zm-8.764-7.633c1.237 0 2.02-.186 2.613-.677.927-.68 1.32-1.629 1.32-2.886 0-2.51-1.686-3.422-3.514-3.422-.689 0-1.095.09-1.26.234-.214.163-.287.397-.287 1.006v5.745h1.128zm35.816-7.142c-1.517.166-2.018.4-2.087 1.478-.027.75-.073 1.736-.073 3.908v9.406H81.2L71.037 3.559V9.42c0 2.11.07 3.165.119 3.846.046 1.195.64 1.547 2.348 1.687v.651h-5.768v-.651c1.47-.118 2.041-.47 2.137-1.629.07-.752.119-1.807.119-3.94V3.419c0-.652-.05-1.033-.475-1.55-.452-.587-.95-.727-2.114-.844V.374h3.562l10.07 11.795V6.418c0-2.179-.047-3.188-.12-3.892-.072-1.055-.616-1.384-2.516-1.501V.374h5.864v.65z" fill="#000"/><g filter="url(#filter0_d)"><path d="M104.168 15.613v-.652c1.544-.185 1.732-.42 1.402-1.303-.33-.882-.785-2.087-1.283-3.562h-5.132c-.38 1.055-.736 1.954-1.069 2.93-.52 1.525-.188 1.71 1.758 1.955v.651H94.36v-.651c1.498-.186 1.877-.352 2.708-2.462l4.915-12.31.761-.14c1.495 4.008 3.134 8.44 4.618 12.499.759 2.038.973 2.227 2.658 2.413v.651l-5.851-.02zm-2.375-12.5a1064.37 1064.37 0 01-2.282 6.002h4.443l-2.161-6.002z" fill="#000"/></g></g><defs><clipPath id="clip0"><path fill="#fff" transform="translate(.527 .042)" d="M0 0h119.595v15.828H0z"/></clipPath><filter id="filter0_d" x="90.359" y=".068" width="23.66" height="23.564" filterUnits="userSpaceOnUse" color-interpolation-filters="sRGB"><feFlood flood-opacity="0" result="BackgroundImageFix"/><feColorMatrix in="SourceAlpha" values="0 0 0 0 0 0 0 0 0 0 0 0 0 0 0 0 0 0 127 0" result="hardAlpha"/><feOffset dy="4"/><feGaussianBlur stdDeviation="2"/><feColorMatrix values="0 0 0 0 0 0 0 0 0 0 0 0 0 0 0 0 0 0 0.25 0"/><feBlend in2="BackgroundImageFix" result="effect1_dropShadow"/><feBlend in="SourceGraphic" in2="effect1_dropShadow" result="shape"/></filter></defs></svg>