<svg width="45" height="7" fill="none" xmlns="http://www.w3.org/2000/svg"><path fill-rule="evenodd" clip-rule="evenodd" d="M8.38 0C6.41 0 4.967 1.465 4.967 3.5c0 .793.22 1.493.606 2.063H.677c-.378 0-.677.326-.677.718V7h8.388c1.97 0 3.402-1.465 3.402-3.5C11.783 1.465 10.357 0 8.38 0zm-.01 5.777c-1.178 0-2.04-.942-2.04-2.277 0-1.316.853-2.277 2.04-2.277 1.196 0 2.049.961 2.049 2.277 0 1.335-.853 2.277-2.049 2.277zM19.862 3.5c0 2.035-1.424 3.5-3.402 3.5-1.97 0-3.412-1.465-3.412-3.5S14.49 0 16.459 0c1.97 0 3.403 1.465 3.403 3.5zm-5.451 0c0 1.335.853 2.277 2.04 2.277 1.195 0 2.048-.942 2.048-2.277 0-1.316-.853-2.277-2.048-2.277-1.187 0-2.04.961-2.04 2.277zm12.652-.523v3.304h-.026V7h-.677c-.37 0-.677-.317-.677-.719V2.977c0-1.082-.633-1.792-1.609-1.792s-1.609.719-1.609 1.792V7h-.677c-.37 0-.677-.317-.677-.719V2.977C21.111 1.204 22.315 0 24.074 0c1.776 0 2.99 1.204 2.99 2.977zM34.264.58V0h-.668c-.378 0-.677.327-.677.719v3.313c0 1.073-.65 1.773-1.627 1.773-.976 0-1.609-.7-1.609-1.773V0h-.668c-.378 0-.677.317-.677.719V4.04c0 1.765 1.204 2.96 2.972 2.96 1.758 0 2.963-1.204 2.963-2.959V.86l-.009-.28zm6.005.718C40.666.485 41.474 0 42.504 0 44.015 0 45.009 1.073 45 2.707V7h-.677c-.37 0-.677-.317-.677-.719V2.67c0-.905-.528-1.521-1.345-1.521-.818 0-1.363.616-1.363 1.521V7h-.669c-.369 0-.676-.317-.676-.719V2.67c0-.905-.546-1.521-1.363-1.521-.818 0-1.345.616-1.345 1.521v4.322h-.677c-.37 0-.677-.318-.677-.719V2.707c0-1.634.984-2.707 2.505-2.707 1.029 0 1.838.485 2.233 1.297z" fill="#000"/></svg>