<svg width="55" height="8" fill="none" xmlns="http://www.w3.org/2000/svg"><path fill-rule="evenodd" clip-rule="evenodd" d="M10.241 0c-2.407 0-4.17 1.675-4.17 4 0 .907.27 1.707.742 2.357H.827A.825.825 0 000 7.18V8h10.251c2.408 0 4.16-1.675 4.16-4-.011-2.325-1.752-4-4.17-4zm-.01 6.603C8.79 6.603 7.736 5.525 7.736 4c0-1.504 1.043-2.603 2.493-2.603 1.462 0 2.504 1.099 2.504 2.603 0 1.525-1.042 2.603-2.504 2.603zM24.275 4c0 2.325-1.74 4-4.159 4-2.407 0-4.17-1.675-4.17-4s1.763-4 4.17-4 4.16 1.675 4.16 4zm-6.663 0c0 1.525 1.043 2.603 2.494 2.603 1.461 0 2.503-1.078 2.503-2.603 0-1.504-1.042-2.603-2.503-2.603-1.451 0-2.494 1.099-2.494 2.603zm15.465-.597v3.776h-.033V8h-.827a.825.825 0 01-.827-.821V3.403c0-1.238-.774-2.048-1.967-2.048s-1.967.821-1.967 2.048V8h-.827a.825.825 0 01-.828-.821V3.403C25.802 1.376 27.275 0 29.424 0c2.17 0 3.654 1.376 3.654 3.403zm8.8-2.742V0h-.817a.825.825 0 00-.827.821v3.787c0 1.227-.795 2.027-1.988 2.027s-1.967-.8-1.967-2.027V0h-.816a.818.818 0 00-.828.821V4.62C34.635 6.635 36.107 8 38.267 8c2.15 0 3.622-1.376 3.622-3.381V.98l-.01-.32zm7.34.822C49.703.555 50.691 0 51.948 0 53.796 0 55.011 1.227 55 3.093V8h-.828a.825.825 0 01-.827-.821V3.05c0-1.035-.645-1.739-1.644-1.739-1 0-1.666.704-1.666 1.739V8h-.816a.825.825 0 01-.828-.821V3.05c0-1.035-.666-1.739-1.666-1.739-.999 0-1.644.704-1.644 1.739v4.938h-.827a.825.825 0 01-.828-.821V3.093C43.426 1.227 44.63 0 46.49 0c1.257 0 2.246.555 2.73 1.483z" fill="#000"/></svg>