<svg width="519" height="496" fill="none" xmlns="http://www.w3.org/2000/svg"><g filter="url(#filter0_f)"><circle cx="272" cy="248" r="97" fill="#D7969E"/></g><g filter="url(#filter1_b)"><path fill-rule="evenodd" clip-rule="evenodd" d="M465 0H0v496h465V0zm-99.512 166.537c4.737 1.915 5.212 2.771 5.688 6.266l1.462.029v-12.009h-1.462c-.527 4.286-1.002 4.909-4.058 3.763-6.653-2.487-15.214-5.932-22.005-8.702 8.743-3.285 19.22-7.1 23.058-8.405 1.952-.733 2.58-.522 3.005 3.343h1.462v-13.264h-1.462c-.315 3.184-.841 4.083-4.738 5.533-7.793 2.981-20.112 7.47-28.585 10.552v1.719c5.129 2.011 17.11 6.891 23.696 9.573 1.798.732 3.194 1.301 3.939 1.602zM338.43 195.03h1.463c.468 4.279.68 4.699 5.117 4.699h20.953c4.525 0 4.737-.42 5.213-4.699h1.462v13.997h-1.462c-.476-4.352-.688-4.758-5.213-4.758h-20.902c-4.525 0-4.686.421-5.117 4.758h-1.462l-.052-13.997zm-.343 65.595v.002c-.042.527-.081 1.014-.081 1.564l1.47.21a7.498 7.498 0 012.419-3.814 48.357 48.357 0 015.425-4.119c2.369-1.574 5.893-3.815 7.53-4.758 1.682 3.837 4.526 6.738 9.051 6.738a7.937 7.937 0 003.952-.86 7.85 7.85 0 003-2.694c1.316-1.98 1.792-4.54 1.792-8.354v-13.315h-1.463c-.482 4.126-.643 4.699-5.117 4.699h-21.004c-4.438 0-4.65-.348-5.118-4.699h-1.462V245.2h1.462c.381-4.178.644-4.758 5.118-4.758h8.268v1.835c0 2.633-.314 3.307-2.003 4.351-.789.493-1.633 1.004-2.501 1.528-2.08 1.257-4.29 2.593-6.184 3.955-3.261 2.299-4.262 4.337-4.525 8.151l-.029.363zm18.576-11.959c-1.104-1.305-1.52-3.024-1.52-5.743v-2.481h12.896c1.367 0 1.893.16 2.259.631.322.363.526 1.255.526 2.771 0 4.017-2.047 7.723-7.683 7.723-2.822 0-4.95-.863-6.478-2.901zm14.513 73.006c-.373-3.336-.9-4.439-3.32-4.591l-.573-.02h-.001c-1.624-.059-3.856-.14-8.199-.14H337.97v-1.987l27.518-22.343h-13.16c-4.737 0-7.106.152-8.634.261-2.683.101-3.472 1.407-3.787 5.163h-1.462v-12.683h1.462c.263 3.234 1.053 4.489 3.656 4.699 1.688.152 4.057.261 8.846.261h13.393c1.462 0 2.318-.109 3.48-1.044 1.316-.994 1.63-2.089 1.894-4.649h1.462v7.832l-26.48 22.141h12.911c4.891 0 7.157-.102 8.736-.261 2.369-.16 3.107-1.356 3.371-5.534h1.462v12.895h-1.462zm-31.283 43.765h-1.462l-.044 12.865h1.462c.417-3.706.841-4.177 5.417-5.845 9.11-3.264 19.06-6.868 28.059-10.153l-.314-1.675-27.635-10.806c-4.737-1.828-5.11-2.662-5.527-5.954h-1.462v12.06h1.462c.548-4.278.965-5.011 4.387-3.865 1.31.437 2.557.893 3.855 1.367.874.319 1.771.647 2.724.983v11.284c-3.064 1.013-5.609 1.946-7.542 2.654l-.456.167c-1.981.725-2.507.312-2.924-3.082zm13.123-10.24c4.16 1.566 8.948 3.343 13.474 5.018l-13.474 4.75v-9.768z" fill="#fff" fill-opacity=".85"/></g><defs><filter id="filter0_f" x="25" y="1" width="494" height="494" filterUnits="userSpaceOnUse" color-interpolation-filters="sRGB"><feFlood flood-opacity="0" result="BackgroundImageFix"/><feBlend in="SourceGraphic" in2="BackgroundImageFix" result="shape"/><feGaussianBlur stdDeviation="75" result="effect1_foregroundBlur"/></filter><filter id="filter1_b" x="-40" y="-40" width="545" height="576" filterUnits="userSpaceOnUse" color-interpolation-filters="sRGB"><feFlood flood-opacity="0" result="BackgroundImageFix"/><feGaussianBlur in="BackgroundImage" stdDeviation="20"/><feComposite in2="SourceAlpha" operator="in" result="effect1_backgroundBlur"/><feBlend in="SourceGraphic" in2="effect1_backgroundBlur" result="shape"/></filter></defs></svg>