<svg width="399" height="426" fill="none" xmlns="http://www.w3.org/2000/svg"><g filter="url(#filter0_f)"><circle cx="161.5" cy="237.5" r="87.5" fill="#D7969E"/></g><g filter="url(#filter1_b)"><path fill-rule="evenodd" clip-rule="evenodd" d="M369 10H0v416h369V10zM263.179 144.262c3.841 1.722 4.227 2.492 4.612 5.637l1.186.026v-10.804h-1.186c-.427 3.856-.812 4.417-3.29 3.386-5.394-2.238-12.335-5.337-17.842-7.829 7.089-2.956 15.584-6.388 18.696-7.562 1.582-.659 2.092-.47 2.436 3.008h1.186v-11.933h-1.186c-.255 2.864-.682 3.673-3.841 4.978-6.319 2.681-16.307 6.72-23.177 9.493v1.546c4.151 1.806 13.841 6.185 19.187 8.6l.014.007.009.004.008.003c1.455.658 2.585 1.169 3.188 1.44zm-21.938 25.634h1.185c.38 3.849.552 4.227 4.15 4.227h16.989c3.669 0 3.841-.378 4.226-4.227h1.186v12.592h-1.186c-.385-3.915-.557-4.28-4.226-4.28h-16.948c-3.669 0-3.799.378-4.149 4.28h-1.186l-.041-12.592zm-.278 59.012a18.48 18.48 0 00-.066 1.409l1.191.19c.319-1.339 1.004-2.537 1.962-3.432a39.893 39.893 0 014.399-3.706c1.92-1.416 4.777-3.432 6.105-4.28 1.364 3.451 3.669 6.061 7.339 6.061a5.896 5.896 0 003.204-.774 6.642 6.642 0 002.433-2.423c1.067-1.781 1.452-4.084 1.452-7.516v-11.979h-1.185c-.392 3.713-.522 4.228-4.15 4.228h-17.03c-3.598 0-3.77-.313-4.149-4.228h-1.186v12.573h1.186c.308-3.758.521-4.28 4.149-4.28h6.704v1.651c0 2.368-.255 2.975-1.624 3.914-.64.443-1.325.903-2.027 1.374h-.001c-1.686 1.132-3.479 2.334-5.014 3.559-2.644 2.068-3.456 3.901-3.669 7.333l-.023.326zm15.061-10.759c-.895-1.174-1.233-2.72-1.233-5.167v-2.231h10.457c1.108 0 1.535.143 1.831.567.261.327.427 1.129.427 2.493 0 3.614-1.66 6.948-6.23 6.948-2.288 0-4.013-.776-5.252-2.61zm11.767 65.68c-.302-3.001-.729-3.993-2.691-4.13l-.18-.007-.285-.011c-1.317-.053-3.127-.125-6.648-.125h-17.12v-1.788l22.312-20.102h-10.67c-3.841 0-5.761.137-7 .235-2.176.092-2.816 1.266-3.071 4.646h-1.185v-11.411h1.185c.214 2.91.854 4.038 2.964 4.227 1.369.137 3.29.235 7.173.235h10.859c1.186 0 1.879-.098 2.822-.939 1.067-.894 1.322-1.879 1.535-4.182h1.186v7.046l-21.471 19.919h10.469c3.965 0 5.803-.092 7.083-.235 1.921-.144 2.52-1.22 2.733-4.978h1.186v11.6h-1.186zm-25.364 39.373h-1.186l-.035 11.575h1.185c.338-3.334.682-3.758 4.393-5.259a3901.46 3901.46 0 0022.75-9.134l-.255-1.507-22.407-9.721c-3.841-1.644-4.143-2.395-4.481-5.357h-1.185v10.85h1.185c.445-3.849.783-4.508 3.557-3.477 1.062.393 2.073.803 3.125 1.229.709.288 1.436.582 2.21.885v10.151c-2.485.912-4.548 1.751-6.115 2.388l-.37.15c-1.607.653-2.033.281-2.371-2.773zm10.64-9.212c3.373 1.409 7.255 3.008 10.925 4.515l-10.925 4.273v-8.788z" fill="#fff" fill-opacity=".85"/></g><defs><filter id="filter0_f" x="-76" y="0" width="475" height="475" filterUnits="userSpaceOnUse" color-interpolation-filters="sRGB"><feFlood flood-opacity="0" result="BackgroundImageFix"/><feBlend in="SourceGraphic" in2="BackgroundImageFix" result="shape"/><feGaussianBlur stdDeviation="75" result="effect1_foregroundBlur"/></filter><filter id="filter1_b" x="-40" y="-30" width="449" height="496" filterUnits="userSpaceOnUse" color-interpolation-filters="sRGB"><feFlood flood-opacity="0" result="BackgroundImageFix"/><feGaussianBlur in="BackgroundImage" stdDeviation="20"/><feComposite in2="SourceAlpha" operator="in" result="effect1_backgroundBlur"/><feBlend in="SourceGraphic" in2="effect1_backgroundBlur" result="shape"/></filter></defs></svg>